<svg width="16" height="16" viewBox="0 0 16 16" fill="none" xmlns="http://www.w3.org/2000/svg">
<g clip-path="url(#clip0_136_214)">
<path d="M8.4367 5.14387C7.4572 4.89022 6.45755 5.47862 6.2039 6.45813C6.15327 6.65431 6.27126 6.85438 6.46744 6.905C6.66362 6.95563 6.86369 6.83764 6.91431 6.64146C7.00723 6.27976 7.2774 5.98995 7.63167 5.87183C8.2079 5.67972 8.83072 5.99116 9.02278 6.56734C9.21489 7.14357 8.9035 7.76639 8.32727 7.95845C7.8846 8.12294 7.59541 8.55057 7.60754 9.02265V9.48353C7.60763 9.68593 7.77181 9.84993 7.97421 9.84979C8.17661 9.84966 8.34101 9.68553 8.34088 9.48313V9.02265C8.33094 8.86509 8.41965 8.71788 8.5636 8.65311C9.14945 8.45528 9.59597 7.97524 9.75097 7.37663C10.0046 6.39717 9.41617 5.39752 8.4367 5.14387ZM7.97407 10.4914C7.72092 10.4914 7.51574 10.6966 7.51574 10.9497C7.51574 11.2029 7.72092 11.4081 7.97407 11.4081C8.22719 11.4081 8.43241 11.2029 8.43241 10.9497C8.43241 10.6966 8.22719 10.4914 7.97407 10.4914ZM7.99999 0.666656C3.94992 0.666656 0.666656 3.94992 0.666656 7.99999C0.666656 12.0501 3.94992 15.3333 7.99999 15.3333C12.0481 15.3286 15.3286 12.0481 15.3333 7.99999C15.3333 3.94992 12.0501 0.666656 7.99999 0.666656ZM7.99999 14.6C4.3549 14.6 1.39999 11.6451 1.39999 7.99999C1.39999 4.3549 4.3549 1.39999 7.99999 1.39999C11.6434 1.40397 14.596 4.35655 14.6 7.99999C14.6 11.6451 11.6451 14.6 7.99999 14.6Z" />
</g>
<defs>
<clipPath id="clip0_136_214">
<rect width="16" height="16"/>
</clipPath>
</defs>
</svg>
