<svg width="14" height="14" viewBox="0 0 14 14" fill="none" xmlns="http://www.w3.org/2000/svg">
<path d="M6.05999 7.93998C6.33332 8.19999 6.33332 8.62665 6.05999 8.88665C5.79998 9.14665 5.37332 9.14665 5.11332 8.88665C3.81332 7.58665 3.81332 5.47332 5.11332 4.17332L7.47332 1.81332C8.77332 0.513318 10.8867 0.513318 12.1867 1.81332C13.4867 3.11332 13.4867 5.22665 12.1867 6.52665L11.1933 7.51998C11.2 6.97332 11.1133 6.42665 10.9267 5.90665L11.24 5.58665C12.0267 4.80665 12.0267 3.53998 11.24 2.75998C10.46 1.97332 9.19332 1.97332 8.41332 2.75998L6.05999 5.11332C5.27332 5.89332 5.27332 7.15999 6.05999 7.93998ZM7.93998 5.11332C8.19999 4.85332 8.62665 4.85332 8.88665 5.11332C10.1867 6.41332 10.1867 8.52665 8.88665 9.82665L6.52665 12.1867C5.22665 13.4867 3.11332 13.4867 1.81332 12.1867C0.513318 10.8867 0.513318 8.77332 1.81332 7.47332L2.80665 6.47999C2.79998 7.02665 2.88665 7.57332 3.07332 8.09998L2.75998 8.41332C1.97332 9.19332 1.97332 10.46 2.75998 11.24C3.53998 12.0267 4.80665 12.0267 5.58665 11.24L7.93998 8.88665C8.72665 8.10665 8.72665 6.83998 7.93998 6.05999C7.66665 5.79998 7.66665 5.37332 7.93998 5.11332Z" fill="#7E8185"/>
</svg>
