<svg width="16" height="16" viewBox="0 0 16 16" fill="none" xmlns="http://www.w3.org/2000/svg">
<path d="M2.59998 7.99996C2.59998 6.85996 3.52665 5.93329 4.66665 5.93329H7.33331V4.66663H4.66665C3.78259 4.66663 2.93474 5.01782 2.30962 5.64294C1.6845 6.26806 1.33331 7.1159 1.33331 7.99996C1.33331 8.88401 1.6845 9.73186 2.30962 10.357C2.93474 10.9821 3.78259 11.3333 4.66665 11.3333H7.33331V10.0666H4.66665C3.52665 10.0666 2.59998 9.13996 2.59998 7.99996ZM5.33331 8.66663H10.6666V7.33329H5.33331V8.66663ZM11.3333 4.66663H8.66665V5.93329H11.3333C12.4733 5.93329 13.4 6.85996 13.4 7.99996C13.4 9.13996 12.4733 10.0666 11.3333 10.0666H8.66665V11.3333H11.3333C12.2174 11.3333 13.0652 10.9821 13.6903 10.357C14.3155 9.73186 14.6666 8.88401 14.6666 7.99996C14.6666 7.1159 14.3155 6.26806 13.6903 5.64294C13.0652 5.01782 12.2174 4.66663 11.3333 4.66663Z"/>
</svg>
