<svg width="18" height="18" viewBox="0 0 18 18" fill="none" xmlns="http://www.w3.org/2000/svg">
<path d="M9 3C8.21207 3 7.43185 3.15519 6.7039 3.45672C5.97595 3.75825 5.31451 4.20021 4.75736 4.75736C3.63214 5.88258 3 7.4087 3 9C3 10.5913 3.63214 12.1174 4.75736 13.2426C5.31451 13.7998 5.97595 14.2417 6.7039 14.5433C7.43185 14.8448 8.21207 15 9 15C10.5913 15 12.1174 14.3679 13.2426 13.2426C14.3679 12.1174 15 10.5913 15 9C15 8.21207 14.8448 7.43185 14.5433 6.7039C14.2417 5.97595 13.7998 5.31451 13.2426 4.75736C12.6855 4.20021 12.0241 3.75825 11.2961 3.45672C10.5681 3.15519 9.78793 3 9 3ZM7.2 7.2H10.8V10.8H7.2" fill="#F8F8F8"/>
</svg>
