<svg width="16" height="16" viewBox="0 0 16 16" fill="none" xmlns="http://www.w3.org/2000/svg">
<path d="M7.99999 11.2C9.7673 11.2 11.2 9.7673 11.2 7.99999C11.2 6.23268 9.7673 4.79999 7.99999 4.79999C6.23268 4.79999 4.79999 6.23268 4.79999 7.99999C4.79999 9.7673 6.23268 11.2 7.99999 11.2Z" fill="#7E8185"/>
<path d="M8.00001 3.20001C7.85857 3.20001 7.72291 3.14382 7.62289 3.0438C7.52287 2.94379 7.46668 2.80813 7.46668 2.66668V1.60001C7.46668 1.45857 7.52287 1.32291 7.62289 1.22289C7.72291 1.12287 7.85857 1.06668 8.00001 1.06668C8.14146 1.06668 8.27712 1.12287 8.37714 1.22289C8.47716 1.32291 8.53335 1.45857 8.53335 1.60001V2.66668C8.53335 2.80813 8.47716 2.94379 8.37714 3.0438C8.27712 3.14382 8.14146 3.20001 8.00001 3.20001ZM8.00001 14.9333C7.85857 14.9333 7.72291 14.8772 7.62289 14.7771C7.52287 14.6771 7.46668 14.5415 7.46668 14.4V13.3333C7.46668 13.1919 7.52287 13.0562 7.62289 12.9562C7.72291 12.8562 7.85857 12.8 8.00001 12.8C8.14146 12.8 8.27712 12.8562 8.37714 12.9562C8.47716 13.0562 8.53335 13.1919 8.53335 13.3333V14.4C8.53335 14.5415 8.47716 14.6771 8.37714 14.7771C8.27712 14.8772 8.14146 14.9333 8.00001 14.9333ZM2.66668 8.53335H1.60001C1.45857 8.53335 1.32291 8.47716 1.22289 8.37714C1.12287 8.27712 1.06668 8.14146 1.06668 8.00001C1.06668 7.85857 1.12287 7.72291 1.22289 7.62289C1.32291 7.52287 1.45857 7.46668 1.60001 7.46668H2.66668C2.80813 7.46668 2.94379 7.52287 3.0438 7.62289C3.14382 7.72291 3.20001 7.85857 3.20001 8.00001C3.20001 8.14146 3.14382 8.27712 3.0438 8.37714C2.94379 8.47716 2.80813 8.53335 2.66668 8.53335ZM14.4 8.53335H13.3333C13.1919 8.53335 13.0562 8.47716 12.9562 8.37714C12.8562 8.27712 12.8 8.14146 12.8 8.00001C12.8 7.85857 12.8562 7.72291 12.9562 7.62289C13.0562 7.52287 13.1919 7.46668 13.3333 7.46668H14.4C14.5415 7.46668 14.6771 7.52287 14.7771 7.62289C14.8772 7.72291 14.9333 7.85857 14.9333 8.00001C14.9333 8.14146 14.8772 8.27712 14.7771 8.37714C14.6771 8.47716 14.5415 8.53335 14.4 8.53335ZM3.47201 13.0613C3.33134 13.0593 3.19715 13.0018 3.09868 12.9013C2.99935 12.8014 2.94359 12.6662 2.94359 12.5253C2.94359 12.3844 2.99935 12.2493 3.09868 12.1493L3.85068 11.392C3.95111 11.2916 4.08732 11.2352 4.22935 11.2352C4.37138 11.2352 4.50759 11.2916 4.60801 11.392C4.70844 11.4924 4.76486 11.6287 4.76486 11.7707C4.76486 11.9127 4.70844 12.0489 4.60801 12.1493L3.85068 12.9013C3.80129 12.9517 3.74238 12.9918 3.67738 13.0193C3.61238 13.0468 3.54258 13.0611 3.47201 13.0613ZM11.7707 4.76268C11.7005 4.76309 11.6309 4.74963 11.5659 4.72309C11.501 4.69655 11.4418 4.65744 11.392 4.60801C11.342 4.55843 11.3024 4.49945 11.2753 4.43445C11.2482 4.36946 11.2343 4.29975 11.2343 4.22935C11.2343 4.15894 11.2482 4.08923 11.2753 4.02424C11.3024 3.95925 11.342 3.90026 11.392 3.85068L12.1493 3.09868C12.2514 3.01131 12.3826 2.96565 12.5168 2.97083C12.6511 2.97602 12.7784 3.03166 12.8734 3.12665C12.9684 3.22163 13.024 3.34896 13.0292 3.48319C13.0344 3.61741 12.9887 3.74865 12.9013 3.85068L12.1493 4.60801C12.0995 4.65744 12.0404 4.69655 11.9754 4.72309C11.9105 4.74963 11.8409 4.76309 11.7707 4.76268ZM12.528 13.0613C12.4575 13.0611 12.3876 13.0468 12.3226 13.0193C12.2576 12.9918 12.1987 12.9517 12.1493 12.9013L11.392 12.1493C11.3423 12.0996 11.3028 12.0406 11.2759 11.9756C11.249 11.9106 11.2352 11.841 11.2352 11.7707C11.2352 11.7004 11.249 11.6307 11.2759 11.5657C11.3028 11.5008 11.3423 11.4417 11.392 11.392C11.4417 11.3423 11.5008 11.3028 11.5657 11.2759C11.6307 11.249 11.7004 11.2352 11.7707 11.2352C11.841 11.2352 11.9106 11.249 11.9756 11.2759C12.0406 11.3028 12.0996 11.3423 12.1493 11.392L12.9013 12.1493C13.0007 12.2493 13.0564 12.3844 13.0564 12.5253C13.0564 12.6662 13.0007 12.8014 12.9013 12.9013C12.8029 13.0018 12.6687 13.0593 12.528 13.0613ZM4.22935 4.76268C4.15916 4.76309 4.08958 4.74963 4.0246 4.72309C3.95962 4.69655 3.90052 4.65744 3.85068 4.60801L3.09868 3.85068C3.01131 3.74865 2.96565 3.61741 2.97083 3.48319C2.97602 3.34896 3.03166 3.22163 3.12665 3.12665C3.22163 3.03166 3.34896 2.97602 3.48319 2.97083C3.61741 2.96565 3.74865 3.01131 3.85068 3.09868L4.60801 3.85068C4.658 3.90026 4.69768 3.95925 4.72476 4.02424C4.75183 4.08923 4.76577 4.15894 4.76577 4.22935C4.76577 4.29975 4.75183 4.36946 4.72476 4.43445C4.69768 4.49945 4.658 4.55843 4.60801 4.60801C4.55818 4.65744 4.49908 4.69655 4.4341 4.72309C4.36912 4.74963 4.29954 4.76309 4.22935 4.76268Z" fill="#7E8185"/>
</svg>
