<svg width="18" height="18" viewBox="0 0 18 18" fill="none" xmlns="http://www.w3.org/2000/svg">
<path d="M7.64763 9.30784C7.73327 9.42203 7.77484 9.56327 7.76473 9.70564C7.75461 9.848 7.69348 9.98195 7.59255 10.0829C7.49163 10.1838 7.35769 10.2449 7.21532 10.255C7.07295 10.2652 6.93171 10.2236 6.81752 10.1379C6.53392 9.87178 6.30788 9.55031 6.15336 9.19338C5.99884 8.83644 5.91912 8.45163 5.91912 8.06268C5.91912 7.67374 5.99884 7.28892 6.15336 6.93199C6.30788 6.57506 6.53392 6.25359 6.81752 5.98742L8.89279 3.85286C9.45697 3.30588 10.2119 3 10.9977 3C11.7835 3 12.5384 3.30588 13.1026 3.85286C13.6496 4.41704 13.9555 5.17197 13.9555 5.95777C13.9555 6.74357 13.6496 7.49851 13.1026 8.06268L12.2132 8.95208C12.2259 8.46694 12.1454 7.98386 11.976 7.52904L12.2725 7.23258C12.5892 6.8835 12.7646 6.42907 12.7646 5.95777C12.7646 5.48647 12.5892 5.03204 12.2725 4.68297C11.9234 4.36631 11.469 4.19091 10.9977 4.19091C10.5264 4.19091 10.072 4.36631 9.7229 4.68297L7.64763 6.81752C7.479 6.97812 7.34475 7.1713 7.25302 7.38534C7.16129 7.59938 7.11399 7.82982 7.11399 8.06268C7.11399 8.29555 7.16129 8.52599 7.25302 8.74003C7.34475 8.95407 7.479 9.14725 7.64763 9.30784ZM15 12.0353V13.2212H13.2212V15H12.0353V13.2212H10.2565V12.0353H12.0353V10.2565H13.2212V12.0353M10.9681 9.48572C11.0708 9.00714 11.0484 8.51013 10.903 8.04274C10.7576 7.57534 10.4941 7.15334 10.1379 6.81752C10.0238 6.73189 9.88253 6.69031 9.74016 6.70043C9.59779 6.71055 9.46385 6.77168 9.36292 6.8726C9.262 6.97353 9.20087 7.10747 9.19075 7.24984C9.18063 7.39221 9.22221 7.53345 9.30784 7.64763C9.47647 7.80823 9.61072 8.00141 9.70245 8.21544C9.79418 8.42948 9.84148 8.65992 9.84148 8.89279C9.84148 9.12566 9.79418 9.3561 9.70245 9.57014C9.61072 9.78418 9.47647 9.97735 9.30784 10.1379L7.23258 12.2725C6.8835 12.5892 6.42907 12.7646 5.95777 12.7646C5.48647 12.7646 5.03204 12.5892 4.68297 12.2725C4.36631 11.9234 4.19091 11.469 4.19091 10.9977C4.19091 10.5264 4.36631 10.072 4.68297 9.7229L4.97943 9.48572C4.81464 9.0092 4.73438 8.50754 4.74226 8.00339L3.85286 8.89279C3.30588 9.45697 3 10.2119 3 10.9977C3 11.7835 3.30588 12.5384 3.85286 13.1026C4.41704 13.6496 5.17197 13.9555 5.95777 13.9555C6.74357 13.9555 7.49851 13.6496 8.06268 13.1026L9.12996 12.0353C9.2206 11.498 9.43348 10.9886 9.75217 10.5465C10.0709 10.1045 10.4869 9.74153 10.9681 9.48572Z" fill="#B5B8BC"/>
</svg>
