<svg width="92" height="92" viewBox="0 0 92 92" fill="none" xmlns="http://www.w3.org/2000/svg">
<path d="M80.5 11.5V59.4167C80.5 62.975 79.0864 66.3876 76.5703 68.9037C74.0542 71.4198 70.6416 72.8333 67.0833 72.8333C63.525 72.8333 60.1124 71.4198 57.5963 68.9037C55.0802 66.3876 53.6667 62.975 53.6667 59.4167C53.6667 55.8583 55.0802 52.4458 57.5963 49.9296C60.1124 47.4135 63.525 46 67.0833 46C69.1533 46 71.1083 46.46 72.8333 47.3033V24.8017L34.5 32.9667V67.0833C34.5 70.6417 33.0864 74.0542 30.5703 76.5704C28.0542 79.0865 24.6416 80.5 21.0833 80.5C17.525 80.5 14.1124 79.0865 11.5963 76.5704C9.08019 74.0542 7.66666 70.6417 7.66666 67.0833C7.66666 63.525 9.08019 60.1124 11.5963 57.5963C14.1124 55.0802 17.525 53.6667 21.0833 53.6667C23.1533 53.6667 25.1083 54.1267 26.8333 54.97V23L80.5 11.5Z" fill="#F8F8F8"/>
</svg>
